<svg width="60" height="60" viewBox="0 0 60 60" fill="none" xmlns="http://www.w3.org/2000/svg">
<path d="M40.7088 8.8319C41.2052 8.28868 52.8789 9.07542 52.3825 9.61677L39.8396 23.3304C39.7217 23.4595 39.5795 23.5641 39.4212 23.6382C39.2628 23.7123 39.0914 23.7545 38.9168 23.7624C38.7421 23.7702 38.5676 23.7435 38.4032 23.6838C38.2389 23.6242 38.0879 23.5327 37.9589 23.4146L33.1748 19.0389C32.6335 18.5444 32.596 17.7014 33.0924 17.1601L40.7088 8.8319Z" fill="#FF4893"/>
<path d="M39.3321 25.0162C40.2237 25.831 40.2855 27.2172 39.4707 28.1088L18.8319 50.6751C18.0152 51.5667 16.6309 51.6285 15.7374 50.8137L7.86628 43.6132C6.97277 42.7965 6.91096 41.4122 7.72767 40.5206L28.3664 17.9543C29.1813 17.0608 30.5674 16.999 31.4591 17.8157L39.3321 25.0162Z" fill="#8B87C1"/>
<path d="M17.215 52.6977C16.3396 52.6977 15.501 52.3728 14.8538 51.7823L6.98138 44.5807C6.64099 44.2713 6.36536 43.8975 6.17045 43.4809C5.97553 43.0643 5.8652 42.6131 5.84585 42.1536C5.82396 41.6941 5.89358 41.2348 6.05066 40.8024C6.20775 40.3701 6.44917 39.9732 6.76091 39.6349L27.3989 17.0694C27.727 16.7107 28.1261 16.4242 28.5709 16.2281C29.0156 16.032 29.4963 15.9306 29.9824 15.9303C30.8592 15.9303 31.6983 16.2564 32.3449 16.8489L40.2171 24.0487C40.5572 24.358 40.8326 24.7318 41.0273 25.1483C41.222 25.5648 41.3321 26.0158 41.3513 26.4752C41.3732 26.9345 41.3038 27.3935 41.1471 27.8258C40.9904 28.258 40.7496 28.6549 40.4385 28.9935L19.7996 51.5602C19.4709 51.9183 19.0715 52.2043 18.6266 52.4001C18.1817 52.5959 17.701 52.6972 17.215 52.6977ZM29.9824 18.5526C29.7329 18.5526 29.5029 18.6539 29.3354 18.8377L8.69534 41.4054C8.61717 41.4901 8.5566 41.5895 8.51714 41.6978C8.47769 41.8061 8.46014 41.9212 8.4655 42.0363C8.47043 42.1517 8.4982 42.2649 8.54721 42.3694C8.59621 42.474 8.66547 42.5677 8.75098 42.6453L16.6223 49.846C16.7843 49.9937 16.9956 50.0754 17.2148 50.0753C17.3371 50.0759 17.4583 50.0508 17.5703 50.0015C17.6823 49.9523 17.7827 49.88 17.865 49.7894L38.503 27.2239C38.5809 27.1389 38.6411 27.0394 38.6803 26.9309C38.7195 26.8225 38.7368 26.7074 38.7313 26.5923C38.7266 26.4772 38.6991 26.3641 38.6503 26.2597C38.6016 26.1553 38.5326 26.0616 38.4473 25.9841L30.574 18.7833C30.4128 18.6348 30.2016 18.5524 29.9824 18.5526Z" fill="#4F46A3"/>
<path d="M38.857 25.0748C38.1971 25.0751 37.561 24.8281 37.0743 24.3824L32.2898 20.0063C32.0332 19.7729 31.8255 19.491 31.6787 19.1768C31.5319 18.8626 31.4489 18.5224 31.4345 18.1758C31.4181 17.8289 31.4707 17.4821 31.5894 17.1557C31.708 16.8293 31.8903 16.5296 32.1257 16.2742L39.7409 7.94712C40.1834 7.46308 40.7804 7.33777 42.6434 7.33777C44.2579 7.33777 46.6741 7.4599 48.7987 7.6489C49.8724 7.74444 50.7929 7.85046 51.4607 7.95573C52.5033 8.12001 53.267 8.29384 53.5941 9.03731C53.6998 9.27904 53.7329 9.54633 53.6894 9.80656C53.6459 10.0668 53.5275 10.3087 53.3489 10.5029L40.807 24.2154C40.5592 24.4859 40.2579 24.702 39.9223 24.8499C39.5866 24.9979 39.2238 25.0745 38.857 25.0748ZM41.4176 9.99975L34.0601 18.0449C34.0603 18.0451 34.0596 18.0709 34.0599 18.0713L38.857 22.4525C38.8598 22.4527 38.8626 22.4522 38.8652 22.451C38.8678 22.4499 38.8701 22.448 38.8718 22.4458L49.8951 10.3935C47.8883 10.171 44.7792 9.96004 42.6436 9.96004C41.9972 9.95985 41.6229 9.98102 41.4176 9.99975ZM25.0505 39.3366C24.7962 39.3365 24.5474 39.2625 24.3344 39.1235C24.1214 38.9845 23.9534 38.7866 23.8509 38.5539C23.7484 38.3211 23.7158 38.0636 23.7571 37.8127C23.7984 37.5617 23.9117 37.3282 24.0833 37.1405L33.9436 26.3583C34.0598 26.2312 34.1999 26.1283 34.3559 26.0553C34.5119 25.9824 34.6808 25.9409 34.8528 25.9333C35.0248 25.9256 35.1967 25.9519 35.3585 26.0106C35.5204 26.0694 35.6691 26.1594 35.7962 26.2757C35.9233 26.3919 36.0262 26.532 36.0992 26.688C36.1721 26.844 36.2136 27.0128 36.2213 27.1848C36.229 27.3568 36.2027 27.5287 36.144 27.6906C36.0852 27.8525 35.9952 28.0012 35.879 28.1283L26.0185 38.9103C25.8958 39.0449 25.7462 39.1523 25.5795 39.2257C25.4128 39.2991 25.2326 39.3369 25.0505 39.3366ZM21.1748 43.5757C20.9206 43.5756 20.6718 43.5016 20.4588 43.3627C20.2458 43.2238 20.0778 43.0259 19.9752 42.7932C19.8727 42.5605 19.84 42.303 19.8812 42.0521C19.9224 41.8012 20.0356 41.5676 20.2072 41.3799L20.8815 40.6419C21.1161 40.3852 21.443 40.2322 21.7904 40.2165C22.1378 40.2008 22.4772 40.3238 22.7339 40.5583C22.9906 40.7929 23.1437 41.1198 23.1594 41.4672C23.1751 41.8146 23.0522 42.154 22.8176 42.4107L22.1433 43.1488C22.0205 43.2835 21.871 43.391 21.7042 43.4645C21.5374 43.5381 21.3571 43.5759 21.1748 43.5757Z" fill="#4F46A3"/>
</svg>
