<svg width="60" height="60" viewBox="0 0 60 60" fill="none" xmlns="http://www.w3.org/2000/svg">
<g clip-path="url(#clip0_135_340)">
<path d="M16.7988 33.1994C17.4063 32.7387 18.0656 32.3506 18.7632 32.043C20.398 31.3756 22.6485 30.6114 24.1337 29.9324C25.4504 30.9654 27.6494 31.782 29.9622 31.782C32.4944 31.782 34.586 31.1682 35.9455 29.9648C37.429 30.6344 39.6367 31.3856 41.2469 32.043C42.5009 32.6083 43.2395 33.1774 44.1887 34.0034C45.0677 34.7996 45.8216 35.7238 46.4251 36.7447C47.0632 37.8327 47.5413 39.0069 47.845 40.2311C48.9339 44.5028 49.5726 48.8768 49.7506 53.2815C49.832 55.5 49.3454 58.0465 47.4101 59.1289C46.5262 59.6231 45.4555 59.6428 44.4755 59.3484C39.5495 59.3484 19.8553 59.3509 15.5192 59.3523C14.5434 59.6417 13.4791 59.6206 12.5996 59.1289C10.6641 58.0459 10.1782 55.4992 10.2594 53.2817C10.4373 48.8769 11.076 44.5029 12.1652 40.2313C12.4686 39.007 12.9468 37.8328 13.585 36.7449C14.1885 35.724 14.9425 34.7998 15.8215 34.0036C16.1631 33.7062 16.4778 33.4421 16.7988 33.1994Z" fill="#3F88C9"/>
<path d="M19.2139 15.9783C19.1972 18.5649 18.8943 20.0171 19.0895 21.1175C19.5969 23.9786 21.4371 24.9758 23.4663 25.3649H36.8013C38.8307 24.9763 40.671 23.9786 41.1783 21.1175C41.3733 20.0179 40.9042 18.2033 40.8874 15.6169L19.2139 15.9783Z" fill="#3F88C9"/>
<path d="M18.751 15.9783C18.7431 16.9815 18.6835 17.9811 18.6174 18.9818C18.5507 19.6293 18.5442 20.2815 18.5981 20.9302C18.7964 22.5736 19.6147 24.1133 21.054 24.9827C21.7628 25.3908 22.5377 25.6714 23.3434 25.8119C23.4617 25.8413 23.5867 25.8242 23.6928 25.764C23.7988 25.7038 23.8776 25.6052 23.913 25.4886C23.9445 25.3702 23.9283 25.2442 23.8678 25.1377C23.8072 25.0311 23.7073 24.9526 23.5895 24.9191C22.3124 24.6708 21.0762 24.1723 20.3248 23.0652C19.8916 22.4051 19.6151 21.6547 19.5163 20.8714C19.5293 20.9647 19.5113 20.812 19.5086 20.7811C19.5026 20.7143 19.4982 20.6476 19.4949 20.5806C19.4876 20.4298 19.486 20.2789 19.488 20.1279C19.4922 19.797 19.5121 19.4664 19.5333 19.1363C19.601 18.0842 19.6683 17.0335 19.677 15.9789C19.6817 15.383 18.7557 15.3824 18.751 15.9789V15.9783Z" fill="#211715"/>
<path d="M40.4245 15.617C40.4332 16.6201 40.5138 17.619 40.6174 18.6168C40.718 19.3163 40.7647 20.0226 40.7571 20.7294C40.7571 20.8446 40.7442 20.9596 40.7185 21.072C40.6772 21.2934 40.6253 21.5132 40.5622 21.7294C40.4547 22.1062 40.3014 22.4683 40.1056 22.8076C39.7755 23.3732 39.3081 23.8465 38.7467 24.1837C38.1066 24.5495 37.4065 24.7983 36.6791 24.9185C36.5613 24.9521 36.4615 25.0306 36.401 25.1371C36.3406 25.2436 36.3243 25.3696 36.3558 25.488C36.3906 25.605 36.4693 25.704 36.5754 25.7642C36.6816 25.8245 36.8069 25.8414 36.9252 25.8113C38.4097 25.5219 39.7997 24.866 40.6927 23.6055C41.1831 22.8847 41.5044 22.0624 41.6325 21.2001C41.7448 20.5002 41.6647 19.7895 41.594 19.0896C41.4759 17.9337 41.3625 16.7802 41.352 15.6171C41.3468 15.0216 40.4208 15.0201 40.4261 15.6171L40.4245 15.617Z" fill="#211715"/>
<path d="M19.6155 4.93521C18.9698 5.38425 18.4315 5.97057 18.039 6.65214C17.4439 7.7803 17.485 9.13918 17.6055 10.4161C17.7701 12.1598 18.0923 13.9838 19.2453 15.2991C19.3591 15.2476 19.4794 15.212 19.603 15.1934C19.8012 15.1644 20.0033 15.1788 20.1955 15.2354C20.3876 15.292 20.5652 15.3895 20.7161 15.5213C21.0406 14.3595 21.3646 13.1974 21.6884 12.035C23.6684 11.5842 26.5519 11.1532 28.5194 11.0953C29.4485 11.0679 30.3795 11.0861 31.3092 11.1042C33.6944 11.1451 36.0705 11.4113 38.4057 11.8992C38.7491 13.1314 39.093 14.3633 39.4374 15.595C39.589 15.4387 39.7757 15.3207 39.9821 15.251C40.1884 15.1812 40.4084 15.1617 40.6238 15.194C40.7093 15.2066 40.7933 15.2277 40.8746 15.2571C41.9975 13.9452 42.3145 12.1417 42.4773 10.4167C42.5979 9.13976 42.6388 7.78088 42.0438 6.65272C41.5112 5.64301 40.5459 4.96453 39.6118 4.33293C38.6075 3.65349 37.5979 2.98254 36.583 2.32007C36.0123 1.92687 35.4114 1.57932 34.786 1.28065C33.3052 0.618186 31.5376 0.462891 30.0409 0.462891C28.6388 0.462891 26.7766 0.617222 25.2972 1.2793C24.6718 1.57797 24.0709 1.92552 23.5002 2.31872C22.4852 2.98119 21.4756 3.65214 20.4715 4.33158C20.1846 4.52604 19.8952 4.72435 19.6155 4.93521Z" fill="#3F88C9"/>
<path d="M24.4976 11.5074C25.829 11.2919 27.1719 11.154 28.5194 11.0946C29.4485 11.0672 30.3795 11.0853 31.3092 11.1035C33.6942 11.1443 36.0701 11.4105 38.4051 11.8986L39.4374 15.5941C39.589 15.4378 39.7758 15.3198 39.9821 15.2501C40.1884 15.1804 40.4084 15.1609 40.6238 15.1932C40.8176 15.2205 41.0028 15.2909 41.1659 15.3992C41.3289 15.5074 41.4656 15.6508 41.566 15.8188C41.6817 16.051 41.7474 16.3049 41.7589 16.5641C41.8436 17.5784 41.6478 18.5966 41.1929 19.5072C40.9783 19.9672 40.6671 20.3756 40.2804 20.7046C40.1235 20.8569 39.9238 20.9576 39.7081 20.9932C39.4923 21.0287 39.2708 20.9975 39.0734 20.9037C38.9248 21.3474 38.7313 21.7473 38.6682 21.9412C38.3439 22.8214 36.4883 26.0049 34.1801 27.0368C34.2133 27.3883 34.2617 27.738 34.3229 28.0872C34.4328 28.7147 34.3983 29.2757 35.2708 29.5908C35.2901 29.5979 35.5936 29.7405 35.9869 29.9264C34.629 31.1545 32.5205 31.7813 29.962 31.7813C27.6976 31.7813 25.542 30.9984 24.2165 29.9966C24.6988 29.7738 25.0761 29.5983 25.0971 29.5915C25.9697 29.2765 25.9352 28.7155 26.0451 28.088C26.1049 27.7473 26.1524 27.432 26.1846 27.1041C25.0538 26.5215 24.0583 25.7074 23.2627 24.7149C22.3674 23.6344 21.689 22.3912 21.2649 21.0536L21.1472 21.0854C20.6405 21.222 20.2535 20.9517 19.9448 20.7053C19.558 20.3765 19.2468 19.9681 19.0323 19.5079C18.578 18.5972 18.3826 17.5791 18.4677 16.5648C18.479 16.3054 18.5447 16.0513 18.6606 15.8188C18.7609 15.6507 18.8975 15.5071 19.0606 15.3987C19.2236 15.2903 19.4089 15.2198 19.6028 15.1925C19.801 15.1635 20.0031 15.1778 20.1953 15.2344C20.3874 15.291 20.565 15.3886 20.7159 15.5204C21.0404 14.3586 21.3649 13.1966 21.6895 12.0345C22.5127 11.8469 23.4923 11.6627 24.4976 11.5074Z" fill="white"/>
<path d="M25.7537 26.7262C25.7247 27.1277 25.6752 27.5274 25.6055 27.9238C25.5751 28.1677 25.5319 28.4099 25.4759 28.6492C25.4676 28.6783 25.4159 28.8128 25.4481 28.7431C25.4265 28.7895 25.4015 28.8342 25.3733 28.8768C25.3329 28.9391 25.4134 28.8332 25.3632 28.8913C25.3478 28.909 25.3316 28.9264 25.3148 28.943C25.2769 28.9849 25.2314 29.0193 25.1807 29.0443C25.0509 29.1123 24.9178 29.1737 24.7818 29.2283C24.0904 29.5428 23.4036 29.8676 22.7134 30.185C22.5351 30.267 22.3569 30.349 22.178 30.4296C22.1144 30.4583 22.0505 30.4875 21.9867 30.5152C21.8688 30.5681 22.093 30.4767 21.9882 30.5141C21.8715 30.5494 21.7729 30.6283 21.7126 30.7343C21.6524 30.8403 21.6353 30.9654 21.6647 31.0838C21.6983 31.2016 21.7769 31.3014 21.8834 31.3619C21.99 31.4224 22.116 31.4386 22.2344 31.4071C22.5089 31.3089 22.7745 31.1712 23.0392 31.0496C23.4636 30.855 23.8874 30.6592 24.3107 30.4622L25.2492 30.0278C25.2755 30.0193 25.3007 30.0079 25.3245 29.9938C25.3214 29.9963 25.1497 30.0636 25.2525 30.0256C25.3032 30.0063 25.3528 29.9855 25.4024 29.9643C25.4958 29.9265 25.5862 29.8813 25.6725 29.8292C25.9636 29.6494 26.188 29.3794 26.3116 29.0603C26.3973 28.8002 26.4548 28.5317 26.4829 28.2593C26.567 27.7502 26.6438 27.2417 26.6789 26.7264C26.6789 26.6036 26.6301 26.4859 26.5433 26.399C26.4565 26.3122 26.3387 26.2634 26.2159 26.2634C26.0931 26.2634 25.9754 26.3122 25.8885 26.399C25.8017 26.4859 25.7529 26.6036 25.7529 26.7264L25.7537 26.7262Z" fill="#211715"/>
<path d="M33.6782 26.4951C33.7197 27.2397 33.8128 27.9805 33.9568 28.7122C34.0115 29.0094 34.1446 29.2866 34.3422 29.5152C34.5398 29.7438 34.7948 29.9156 35.0809 30.0128C35.2568 30.0827 34.9628 29.9538 35.0875 30.014C35.1336 30.0362 35.1802 30.0572 35.2265 30.0788C35.3724 30.1472 35.5182 30.2159 35.6639 30.2849C36.0586 30.4715 36.4532 30.6579 36.8476 30.8443C37.1177 30.9716 37.3839 31.1084 37.6578 31.2253C37.7648 31.2834 37.8898 31.2985 38.0075 31.2677C38.1252 31.2368 38.2267 31.1623 38.2914 31.0592C38.3525 30.953 38.3694 30.8269 38.3383 30.7084C38.3072 30.5898 38.2307 30.4883 38.1253 30.4257C37.544 30.178 36.9786 29.8855 36.4074 29.6154C36.1302 29.4843 35.8541 29.3502 35.5749 29.2232C35.4304 29.1671 35.29 29.1006 35.155 29.0244C35.0897 28.9854 35.033 28.9335 34.9886 28.8717C34.9442 28.81 34.9129 28.7398 34.8967 28.6655C34.8306 28.3933 34.781 28.1174 34.7481 27.8393C34.6749 27.3941 34.6269 26.9451 34.6042 26.4945C34.6017 26.3725 34.5521 26.2562 34.4658 26.1699C34.3795 26.0836 34.2632 26.034 34.1412 26.0315C34.0188 26.0327 33.9017 26.0818 33.8151 26.1684C33.7285 26.255 33.6794 26.3721 33.6782 26.4945V26.4951Z" fill="#211715"/>
<path d="M38.3709 14.8711C35.9168 14.5638 32.9407 14.2573 30.0868 14.2636C26.999 14.2706 24.3459 14.5256 20.8674 14.9774L21.2874 13.474C24.5621 13.0548 27.1244 12.8199 30.0868 12.8133C33.129 12.8075 36.3094 13.1567 38.8476 13.4825C38.9876 13.9841 39.1279 14.4853 39.2683 14.9861C38.9782 14.9482 38.679 14.9098 38.3709 14.8711Z" fill="#A0A0A0"/>
<path d="M21.3492 12.5904C23.3719 12.0956 25.432 11.7688 27.5085 11.6133C28.7094 11.5221 29.9138 11.54 31.116 11.563C32.3532 11.5867 33.588 11.6579 34.8182 11.7906C36.1924 11.9348 37.5558 12.1676 38.8999 12.4876C39.4786 12.6271 39.7259 11.7352 39.146 11.5946C36.6874 11.0208 34.1757 10.704 31.6515 10.6493C30.3891 10.6136 29.119 10.5847 27.8577 10.6634C26.7581 10.7319 25.6623 10.8679 24.5731 11.0313C23.4083 11.2061 22.2462 11.4171 21.1022 11.6984C20.5235 11.8409 20.7689 12.7341 21.3484 12.5912L21.3492 12.5904Z" fill="#211715"/>
<path d="M19.4682 14.8516C18.6454 13.7792 18.3107 12.4473 18.1458 11.1266C17.9797 9.8009 17.7781 8.24196 18.384 6.99458C18.9878 5.75203 20.2746 5.01838 21.3796 4.27759C22.0683 3.81537 22.7596 3.357 23.4536 2.9025C24.112 2.43979 24.8067 2.03091 25.5309 1.67981C26.7551 1.1358 28.1506 0.975485 29.4771 0.935166C30.8528 0.863048 32.2315 0.998315 33.5669 1.33643C35.0865 1.75891 36.3693 2.72695 37.6669 3.58715C38.3349 4.03085 39.0038 4.47301 39.6639 4.92771C40.2153 5.28561 40.7201 5.7105 41.1669 6.19264C42.1159 7.2745 42.1508 8.72598 42.0418 10.0895C41.9364 11.4108 41.7628 12.8051 41.1524 14.0006C40.9991 14.3004 40.8187 14.5856 40.6134 14.8525C40.5521 14.9587 40.5351 15.0848 40.5662 15.2035C40.5973 15.3221 40.674 15.4236 40.7795 15.4861C40.8862 15.5451 41.0115 15.5607 41.1295 15.5298C41.2474 15.4989 41.3489 15.4237 41.4129 15.32C42.3283 14.127 42.6707 12.6302 42.8568 11.1671C43.0461 9.68168 43.1804 8.08339 42.5648 6.67531C41.9526 5.27534 40.5857 4.43134 39.368 3.61242C38.6399 3.12281 37.9091 2.63744 37.1753 2.15631C36.4808 1.66573 35.7469 1.23341 34.9811 0.863788C33.5636 0.239905 32.0035 0.0367668 30.467 0.004936C29.0114 -0.0543761 27.5552 0.106132 26.1474 0.481047C24.5509 0.94404 23.1959 1.95877 21.8277 2.86681C21.1245 3.33366 20.4162 3.79569 19.7276 4.2828C19.1245 4.68121 18.5808 5.16293 18.1126 5.71364C17.1123 6.97259 16.9902 8.53828 17.1139 10.088C17.2312 11.5566 17.4351 13.0619 18.0946 14.3973C18.2555 14.7223 18.4478 15.0308 18.6687 15.3184C18.7334 15.4215 18.8348 15.4961 18.9525 15.5269C19.0702 15.5578 19.1952 15.5426 19.3021 15.4845C19.4075 15.422 19.4841 15.3204 19.5152 15.2018C19.5463 15.0833 19.5294 14.9572 19.4682 14.851V14.8516Z" fill="#211715"/>
<path d="M23.1887 29.6893C23.8054 30.334 24.5424 30.8517 25.358 31.2134C26.3422 31.6748 27.3904 31.9853 28.4672 32.1343C30.4958 32.415 32.7026 32.2069 34.585 31.3706C35.4603 30.993 36.2361 30.4176 36.8514 29.6895C36.9351 29.6011 36.9818 29.4839 36.9818 29.3622C36.9818 29.2404 36.9351 29.1232 36.8514 29.0348C36.7641 28.9488 36.6465 28.9006 36.524 28.9006C36.4015 28.9006 36.2839 28.9488 36.1966 29.0348C35.1514 30.3059 33.5769 30.9111 31.9911 31.1701C30.0069 31.5165 27.9652 31.2975 26.0995 30.5382C25.2482 30.2048 24.4785 29.6924 23.8424 29.0357C23.4406 28.594 22.7872 29.2503 23.1877 29.6905L23.1887 29.6893Z" fill="#211715"/>
<path d="M38.7833 20.1849C38.7127 20.5745 38.5929 20.9535 38.4268 21.3129C38.3726 21.4446 38.3147 21.5751 38.263 21.7078C38.246 21.7514 38.2302 21.7956 38.2142 21.8395C38.2088 21.8542 38.2022 21.8685 38.197 21.8833C38.1675 21.9682 38.2323 21.804 38.2086 21.8567C38.029 22.2502 37.8238 22.6316 37.5946 22.9984C36.9438 24.0959 36.1134 25.0764 35.138 25.899C34.6104 26.3481 33.987 26.6704 33.3155 26.8414C32.7351 26.9753 32.9808 27.8683 33.5617 27.7342C34.9615 27.4111 36.1259 26.3869 37.0388 25.3238C37.821 24.4423 38.4744 23.4544 38.9793 22.3895C39.2951 21.6875 39.6078 20.951 39.7093 20.1849C39.7087 20.0623 39.6598 19.9449 39.5731 19.8581C39.4863 19.7714 39.3689 19.7225 39.2463 19.7219C39.1244 19.725 39.0084 19.7747 38.9223 19.8609C38.8361 19.9471 38.7863 20.0631 38.7833 20.1849Z" fill="#211715"/>
<path d="M20.4842 19.858C21.0437 22.8003 22.8212 25.6647 25.4213 27.2173C26.1458 27.6587 26.9495 27.9546 27.7874 28.0883C27.9056 28.117 28.0304 28.0995 28.1362 28.0394C28.242 27.9793 28.321 27.881 28.3569 27.7648C28.3886 27.6464 28.3724 27.5203 28.3119 27.4137C28.2514 27.3072 28.1514 27.2287 28.0335 27.1953C26.633 26.9869 25.4132 26.2394 24.4068 25.2671C23.3161 24.2171 22.4683 22.9414 21.9226 21.5292C21.6842 20.9074 21.5017 20.2656 21.3772 19.6115C21.3436 19.4937 21.2651 19.3939 21.1586 19.3334C21.0521 19.2729 20.9261 19.2567 20.8078 19.2881C20.6908 19.3229 20.5917 19.4016 20.5314 19.5078C20.4711 19.6139 20.4542 19.7393 20.4842 19.8576V19.858Z" fill="#211715"/>
<path d="M39.8408 15.8455C39.934 15.7698 40.0413 15.7132 40.1565 15.6791C40.2717 15.6449 40.3925 15.6339 40.5119 15.6466C40.6314 15.6594 40.7472 15.6956 40.8526 15.7532C40.958 15.8109 41.0509 15.8888 41.1261 15.9825C41.2549 16.2127 41.3181 16.4737 41.309 16.7373C41.3706 17.761 41.1174 18.7791 40.5833 19.6546C40.3255 20.0713 39.8913 20.6589 39.3376 20.5084C38.7618 20.3522 38.516 21.2452 39.0915 21.4014C40.5786 21.8052 41.5494 20.0761 41.9398 18.9057C42.1773 18.1938 42.2765 17.4432 42.2323 16.6941C42.1889 15.9966 41.9833 15.3451 41.3505 14.9699C41.0118 14.7762 40.621 14.6934 40.2328 14.7331C39.8447 14.7727 39.4786 14.9327 39.186 15.1908C39.1001 15.2781 39.052 15.3956 39.052 15.5181C39.052 15.6406 39.1001 15.7582 39.186 15.8455C39.274 15.93 39.3913 15.9772 39.5134 15.9772C39.6354 15.9772 39.7527 15.93 39.8408 15.8455Z" fill="#211715"/>
<path d="M21.0407 15.1907C20.778 14.959 20.4555 14.8057 20.1099 14.7485C19.7644 14.6913 19.4097 14.7323 19.0863 14.867C18.3999 15.1606 18.0889 15.7737 18.0114 16.4875C17.8548 17.9746 18.2879 19.4638 19.2175 20.6351C19.7243 21.2409 20.4577 21.7164 21.2708 21.5306C21.8515 21.3979 21.6057 20.5049 21.0247 20.6376C20.4905 20.7597 19.9664 20.1459 19.7073 19.7537C19.3375 19.1789 19.0891 18.5345 18.9773 17.8602C18.9194 17.5175 18.898 17.1695 18.9136 16.8222C18.8981 16.5352 18.9606 16.2495 19.0944 15.9952C19.1681 15.8987 19.2605 15.818 19.366 15.7579C19.4715 15.6979 19.588 15.6597 19.7086 15.6456C19.8292 15.6315 19.9514 15.6418 20.0679 15.6759C20.1845 15.71 20.293 15.7672 20.3869 15.8441C20.4753 15.928 20.5924 15.9748 20.7143 15.9748C20.8361 15.9748 20.9533 15.928 21.0417 15.8441C21.1275 15.7568 21.1756 15.6392 21.1756 15.5167C21.1756 15.3943 21.1275 15.2767 21.0417 15.1894L21.0407 15.1907Z" fill="#211715"/>
<path d="M25.384 16.2541C25.2387 16.7261 25.3335 17.8119 26.2276 17.9045C27.4096 17.8973 27.4725 16.5845 27.0745 15.9672C26.7489 15.462 25.7911 15.2517 25.384 16.2541Z" fill="#211715"/>
<path d="M35.2225 16.2542C35.3678 16.7261 35.2733 17.812 34.3789 17.9044C33.1971 17.8973 33.1341 16.5845 33.532 15.9672C33.8577 15.462 34.8155 15.2517 35.2225 16.2542Z" fill="#211715"/>
<path d="M36.1337 30.5486C37.6384 31.1878 39.186 31.7216 40.7067 32.3223C42.1072 32.8943 43.3699 33.7581 44.4106 34.856C45.5339 36.0278 46.4027 37.4191 46.9625 38.9427C47.254 39.7805 47.4934 40.6356 47.6792 41.503C47.8887 42.3956 48.0788 43.2924 48.2494 44.1934C48.5911 45.9939 48.8536 47.8073 49.0369 49.6336C49.1269 50.545 49.1968 51.4582 49.2464 52.373C49.3014 53.1265 49.3064 53.8829 49.2613 54.6372C49.1623 55.8824 48.8233 57.2342 47.9263 58.1538C46.8821 59.2243 45.3067 59.3007 43.999 58.6731C42.5709 57.9765 41.3531 56.9135 40.4698 55.5927C39.5184 54.1899 38.7456 52.674 38.1693 51.0801C38.0265 50.6896 37.894 50.2955 37.7684 49.899C37.5894 49.3328 36.6951 49.5747 36.8756 50.1452C37.3977 51.8478 38.1135 53.4848 39.0091 55.024C39.4678 55.8287 40.0031 56.5872 40.6075 57.289C41.1684 57.9009 41.8075 58.4362 42.5083 58.8809C43.1995 59.3659 43.9773 59.7139 44.7996 59.9059C45.6389 60.0885 46.5139 60.0131 47.3097 59.6898C48.6717 59.1064 49.5066 57.7855 49.8907 56.4025C50.3221 54.8484 50.2335 53.2345 50.129 51.6441C50.0017 49.7053 49.7788 47.7727 49.4744 45.8538C49.1727 43.952 48.7858 42.066 48.3137 40.1959C47.9037 38.496 47.1645 36.893 46.1378 35.4776C45.1532 34.1377 43.9105 33.0083 42.4829 32.156C41.7313 31.7447 40.9471 31.3963 40.1382 31.1143C39.3198 30.8031 38.4984 30.5012 37.6818 30.184C37.3199 30.0434 36.9584 29.9008 36.6015 29.749C36.4946 29.6911 36.3696 29.676 36.252 29.7068C36.1343 29.7377 36.0329 29.8121 35.9682 29.9151C35.907 30.0213 35.8902 30.1474 35.9213 30.2659C35.9523 30.3845 36.0289 30.4861 36.1343 30.5486H36.1337Z" fill="#211715"/>
<path d="M30.8443 18.4619C30.5722 18.4504 30.3157 18.4446 30.0765 18.4446C29.8913 18.4446 29.6906 18.4484 29.4784 18.4581L23.1277 19.7757C23.0505 20.1866 23.1046 20.6882 23.0737 21.018C23.024 21.7895 23.0467 22.5639 23.1412 23.3311C23.2473 24.3497 23.2994 25.4319 23.9958 26.2267C25.2845 27.6929 28.2708 28.4742 30.2327 28.4742C31.5421 28.4559 32.8394 28.2206 34.0717 27.7777C35.1424 27.3938 36.1417 26.7514 36.7011 25.8255C37.2297 24.9535 37.2085 24.0796 37.3223 23.0861C37.4074 22.3871 37.421 21.6812 37.3628 20.9795C37.3281 20.6419 37.3802 20.1557 37.2895 19.7564L30.8443 18.4619Z" fill="white"/>
<path d="M22.6811 19.653C22.6009 20.1353 22.6397 20.6175 22.604 21.1016C22.5706 21.6133 22.5749 22.1268 22.6169 22.6379C22.6821 23.541 22.7222 24.5156 23.0101 25.3796C23.5626 27.0387 25.2801 27.8834 26.8392 28.3792C28.5069 28.9181 30.2782 29.0564 32.0093 28.7828C33.8591 28.4876 35.9366 27.8206 37.0241 26.1812C37.6414 25.2521 37.6702 24.1575 37.7857 23.0864C37.855 22.4961 37.8769 21.9011 37.8509 21.3072C37.8532 20.7473 37.8149 20.188 37.7363 19.6337C37.7202 19.5751 37.6926 19.5202 37.6552 19.4722C37.6179 19.4242 37.5714 19.3841 37.5185 19.3541C37.4657 19.3241 37.4074 19.3047 37.347 19.2972C37.2867 19.2897 37.2255 19.2942 37.1668 19.3104C37.1082 19.3265 37.0534 19.3541 37.0054 19.3914C36.9574 19.4288 36.9173 19.4753 36.8872 19.5281C36.8572 19.581 36.8379 19.6393 36.8304 19.6996C36.8229 19.76 36.8274 19.8212 36.8435 19.8798C36.9263 20.2882 36.8821 20.7258 36.9143 21.1413C36.9474 21.6238 36.9445 22.108 36.9058 22.5901C36.8723 23.0494 36.8209 23.5089 36.7737 23.9669C36.742 24.386 36.6519 24.7987 36.5061 25.1929C35.8647 26.7875 33.9807 27.4266 32.4455 27.7609C30.8868 28.1034 29.2693 28.0721 27.7251 27.6697C26.9925 27.4914 26.2842 27.225 25.6157 26.8762C25.0293 26.5606 24.427 26.1557 24.0917 25.5629C23.6588 24.7964 23.6442 23.8147 23.5684 22.9585C23.515 22.4259 23.4967 21.8903 23.5138 21.3552C23.5238 21.1251 23.5473 20.8973 23.5473 20.6665C23.5353 20.4104 23.5443 20.1536 23.5741 19.8989C23.6031 19.7807 23.5858 19.6558 23.5257 19.5498C23.4656 19.4439 23.3672 19.365 23.2508 19.3293C23.1324 19.2977 23.0064 19.3139 22.8998 19.3744C22.7933 19.4349 22.7148 19.5349 22.6813 19.6528L22.6811 19.653Z" fill="#211715"/>
<path d="M29.4784 18.9215C29.9335 18.9012 30.3889 18.9062 30.8442 18.9253C30.9667 18.9244 31.0839 18.8753 31.1705 18.7887C31.2571 18.7021 31.3062 18.5848 31.3072 18.4624C31.3047 18.3403 31.2552 18.224 31.1689 18.1377C31.0826 18.0514 30.9662 18.0018 30.8442 17.9994C30.3889 17.9801 29.9335 17.9752 29.4784 17.9955C29.3556 17.9955 29.2378 18.0443 29.151 18.1311C29.0642 18.2179 29.0154 18.3357 29.0154 18.4585C29.0154 18.5813 29.0642 18.6991 29.151 18.7859C29.2378 18.8727 29.3556 18.9215 29.4784 18.9215Z" fill="#211715"/>
<path d="M20.983 15.4263C23.3468 15.1207 25.7177 14.8581 28.1015 14.7667C30.5544 14.6832 33.0102 14.7641 35.4523 15.0088C36.7356 15.1317 38.0156 15.2862 39.2936 15.4525C39.4162 15.4519 39.5337 15.403 39.6204 15.3163C39.7071 15.2296 39.756 15.1121 39.7566 14.9895C39.7536 14.8676 39.7039 14.7516 39.6177 14.6654C39.5315 14.5792 39.4155 14.5295 39.2936 14.5265C36.9067 14.2144 34.5111 13.9478 32.1049 13.8438C29.7682 13.7538 27.4281 13.8182 25.1 14.0367C23.7243 14.16 22.3527 14.3243 20.983 14.5012C20.8614 14.5051 20.7459 14.5551 20.6599 14.6411C20.5739 14.7271 20.5239 14.8427 20.52 14.9642C20.5207 15.0868 20.5697 15.2042 20.6564 15.2909C20.743 15.3776 20.8604 15.4266 20.983 15.4272V15.4263Z" fill="#211715"/>
<path d="M20.983 13.9767C23.3467 13.6711 25.7177 13.4086 28.1015 13.3171C30.5546 13.2331 33.0107 13.3137 35.453 13.5584C36.7363 13.6813 38.0163 13.8359 39.2943 14.0021C39.4169 14.0015 39.5344 13.9526 39.621 13.8659C39.7077 13.7792 39.7567 13.6618 39.7573 13.5392C39.7543 13.4173 39.7046 13.3013 39.6184 13.2151C39.5322 13.1289 39.4162 13.0791 39.2943 13.0762C36.9074 12.764 34.5118 12.4965 32.1056 12.3934C29.769 12.303 27.4289 12.3672 25.1007 12.5854C23.725 12.7087 22.3534 12.8728 20.9837 13.0499C20.8621 13.0537 20.7466 13.1037 20.6605 13.1897C20.5745 13.2757 20.5245 13.3913 20.5208 13.5129C20.5214 13.6355 20.5704 13.7529 20.6571 13.8396C20.7438 13.9263 20.8612 13.9753 20.9837 13.9759L20.983 13.9767Z" fill="#211715"/>
<path d="M19.9325 15.2418L21.0263 15.4069C21.1469 15.4355 21.2738 15.419 21.383 15.3604C21.4355 15.3297 21.4815 15.289 21.5183 15.2406C21.555 15.1921 21.5819 15.1369 21.5973 15.0781C21.6128 15.0192 21.6164 14.9579 21.6082 14.8977C21.5999 14.8374 21.5798 14.7794 21.5491 14.7269C21.5196 14.6748 21.4799 14.6291 21.4324 14.5927C21.3848 14.5562 21.3305 14.5297 21.2725 14.5147L20.1787 14.3494C20.0581 14.3208 19.9312 14.3374 19.822 14.396C19.7695 14.4267 19.7235 14.4674 19.6867 14.5159C19.65 14.5643 19.6231 14.6196 19.6077 14.6784C19.5922 14.7372 19.5886 14.7985 19.5968 14.8588C19.6051 14.919 19.6252 14.9771 19.6559 15.0296C19.6854 15.0817 19.7251 15.1273 19.7726 15.1638C19.8202 15.2002 19.8745 15.2267 19.9325 15.2418Z" fill="#211715"/>
<path d="M19.9325 13.8378L21.0263 14.0031C21.1469 14.0317 21.2738 14.0151 21.383 13.9564C21.489 13.8944 21.5661 13.7929 21.5972 13.6741C21.6284 13.5554 21.6111 13.4291 21.5491 13.3231C21.5196 13.2709 21.4799 13.2253 21.4324 13.1888C21.3849 13.1524 21.3305 13.1259 21.2725 13.1109L20.1787 12.9446C20.0581 12.916 19.9312 12.9326 19.822 12.9913C19.7695 13.0219 19.7235 13.0627 19.6867 13.1111C19.65 13.1596 19.6231 13.2148 19.6077 13.2736C19.5922 13.3324 19.5886 13.3937 19.5968 13.454C19.6051 13.5142 19.6252 13.5723 19.6559 13.6248C19.6854 13.6769 19.7251 13.7225 19.7726 13.759C19.8202 13.7954 19.8745 13.822 19.9325 13.837V13.8378Z" fill="#211715"/>
<path d="M40.1582 14.3973L39.066 14.5723C38.9496 14.6043 38.8504 14.6804 38.7893 14.7845C38.7274 14.8905 38.7101 15.0168 38.7412 15.1355C38.7724 15.2543 38.8494 15.3559 38.9554 15.4178L39.066 15.4645C39.1465 15.4867 39.2316 15.4867 39.3121 15.4645L40.4044 15.2895C40.5207 15.2575 40.62 15.1814 40.681 15.0773C40.743 14.9692 40.7598 14.8409 40.7277 14.7204C40.6953 14.6043 40.6193 14.5052 40.5155 14.4438L40.405 14.3971C40.3244 14.3751 40.2394 14.3751 40.1588 14.3971L40.1582 14.3973Z" fill="#211715"/>
<path d="M40.1582 12.9398L39.066 13.1147C38.9496 13.1467 38.8504 13.2229 38.7893 13.3269C38.7274 13.4329 38.7101 13.5592 38.7412 13.678C38.7724 13.7968 38.8494 13.8983 38.9554 13.9603L39.066 14.007C39.1465 14.0289 39.2316 14.0289 39.3121 14.007L40.4044 13.832C40.5207 13.8 40.62 13.7239 40.681 13.6198C40.743 13.5138 40.7603 13.3875 40.7292 13.2687C40.698 13.1499 40.621 13.0484 40.5149 12.9864L40.4044 12.9398C40.3239 12.9175 40.2388 12.9175 40.1582 12.9398Z" fill="#211715"/>
<path d="M29.5282 34.5051C29.8451 34.5395 30.1647 34.539 30.4814 34.5038C30.6033 34.499 30.7195 34.4511 30.8094 34.3687C30.8962 34.2819 30.945 34.1641 30.945 34.0413C30.945 33.9186 30.8962 33.8008 30.8094 33.714C30.7668 33.6703 30.7158 33.6357 30.6594 33.6125C30.603 33.5893 30.5424 33.5778 30.4814 33.5789C30.1647 33.6142 29.8451 33.6147 29.5282 33.5803C29.4674 33.5801 29.4071 33.5919 29.3508 33.6151C29.2945 33.6382 29.2434 33.6723 29.2003 33.7153C29.1135 33.8021 29.0647 33.9199 29.0647 34.0427C29.0647 34.1655 29.1135 34.2832 29.2003 34.3701L29.2939 34.4424C29.3648 34.4839 29.4455 34.5057 29.5277 34.5057L29.5282 34.5051Z" fill="#211715"/>
<path d="M33.6942 29.9278C33.7708 29.978 33.8419 30.0362 33.9064 30.1014C33.7488 29.4744 33.7598 28.782 34.4882 28.5334C34.697 28.4541 34.9276 28.4547 35.136 28.535C35.3443 28.6153 35.5157 28.7696 35.6173 28.9684C35.6822 29.0938 35.867 29.4748 35.867 29.4748L35.9549 29.6556C35.9177 29.4513 35.954 29.2405 36.0574 29.0604C36.1607 28.8803 36.3245 28.7426 36.5196 28.6717C37.1728 28.4452 37.6578 28.8133 38.0139 29.5581C38.2178 29.9837 38.5224 30.7559 38.9206 31.7412C39.4181 32.97 39.9986 34.1416 40.4446 34.9875C40.63 34.321 40.6304 33.5165 40.7726 32.8174C40.8159 32.4441 40.9547 32.0883 41.1756 31.7842C41.3008 31.651 41.4661 31.5623 41.6463 31.5317C41.8265 31.5011 42.0118 31.5302 42.1739 31.6146C42.2895 31.6757 42.391 31.7606 42.4715 31.8637C42.5521 31.9667 42.6099 32.0856 42.6413 32.2126C42.9711 34.2712 43.024 36.3646 42.7986 38.4372C42.7457 38.9739 42.5223 39.4803 42.3288 39.9836C42.2364 40.2243 42.1457 40.375 42.1913 40.6202C42.2634 40.8994 42.3738 41.1673 42.5192 41.4164C43.0679 42.4666 43.7998 43.5932 44.4584 44.7705C41.8944 46.4728 39.3873 47.4584 37.1769 48.3165C36.815 48.4569 36.8188 48.2937 36.7004 47.9239C36.1664 46.255 36.2979 43.4958 36.116 42.9047C35.9457 42.3508 34.9018 41.0091 34.6676 40.657C34.1729 39.9009 33.7308 39.1116 33.3444 38.2948C32.9368 37.4107 32.0837 35.5643 31.8347 34.7259C31.7163 34.3947 31.7313 34.0305 31.8768 33.7102C31.9624 33.5255 32.111 33.3772 32.296 33.292C32.4069 33.2456 32.5262 33.2227 32.6464 33.2246C32.7666 33.2266 32.8851 33.2533 32.9945 33.3032L33.0977 33.3344C32.8508 32.6075 32.6227 31.893 32.4125 31.245C32.3606 31.0847 32.235 30.2389 32.899 29.9119C33.0196 29.8396 33.1582 29.8027 33.2989 29.8055C33.4395 29.8083 33.5765 29.8507 33.6942 29.9278Z" fill="white"/>
<path d="M40.9573 34.8355C41.0682 34.2639 41.09 33.6807 41.1888 33.1077C41.2416 32.8 41.2989 32.1115 41.6668 32.0014C41.7392 31.9802 41.8161 31.9796 41.8888 31.9997C41.9615 32.0198 42.0271 32.0598 42.0783 32.1152C42.2406 32.2861 42.2326 32.562 42.2647 32.7829C42.3476 33.3616 42.4018 33.9436 42.435 34.5266C42.4977 35.7052 42.4763 36.8868 42.3712 38.0623C42.3107 38.6269 42.1672 39.1795 41.9452 39.7021C41.8387 39.923 41.7642 40.1581 41.7241 40.4001C41.7174 40.7001 41.7878 40.9969 41.9284 41.262C42.4477 42.427 43.1928 43.4998 43.8302 44.6012C44.1286 45.1168 44.9298 44.6511 44.6298 44.1339C44.0105 43.0634 43.3118 42.0234 42.779 40.9055C42.7191 40.8161 42.681 40.714 42.6676 40.6072C42.6542 40.5005 42.6659 40.3921 42.7018 40.2907C42.8127 40.0029 42.9333 39.7185 43.0348 39.4274C43.2235 38.8035 43.3258 38.1567 43.3388 37.505C43.4287 36.217 43.4129 34.9237 43.2914 33.6383C43.2611 33.3296 43.2234 33.0221 43.1816 32.715C43.166 32.3985 43.0968 32.087 42.9767 31.7938C42.8383 31.5303 42.6177 31.3193 42.3483 31.1928C42.079 31.0663 41.7756 31.0312 41.4845 31.0929C40.808 31.2367 40.5007 31.8962 40.3647 32.5103C40.2123 33.1961 40.1974 33.901 40.0639 34.5893C40.0344 34.7076 40.0515 34.8327 40.1117 34.9387C40.1719 35.0447 40.2706 35.1235 40.3872 35.1588C40.5056 35.1903 40.6316 35.1741 40.7381 35.1136C40.8446 35.0531 40.9231 34.9533 40.9567 34.8355H40.9573Z" fill="#211715"/>
<path d="M40.8456 34.7548C40.3371 33.7864 39.8562 32.8006 39.4387 31.7894C39.2279 31.2783 39.0259 30.7636 38.8156 30.2524C38.6703 29.8644 38.5006 29.4859 38.3075 29.1192C38.0926 28.6934 37.7245 28.3647 37.2771 28.1992C37.0532 28.1353 36.8172 28.1263 36.5891 28.173C36.361 28.2198 36.1475 28.3209 35.9669 28.4678C35.7745 28.6274 35.6303 28.8374 35.5503 29.0743C35.4704 29.3111 35.4578 29.5655 35.5141 29.8091C35.5901 30.0822 35.6827 30.3505 35.7913 30.6124C35.892 30.8937 35.9933 31.1746 36.0951 31.4552C36.5095 32.5952 36.9496 33.7241 37.4344 34.8362C37.4969 34.9416 37.5985 35.0182 37.717 35.0492C37.8356 35.0803 37.9616 35.0635 38.0679 35.0023C38.1715 34.9382 38.2466 34.8367 38.2775 34.7188C38.3084 34.6008 38.2928 34.4756 38.234 34.3688C37.8618 33.5152 37.5202 32.6496 37.1961 31.7764C37.0275 31.3215 36.8629 30.8649 36.6992 30.4081C36.612 30.1654 36.5147 29.9237 36.4385 29.6773C36.4103 29.6095 36.3993 29.5358 36.4065 29.4627C36.4138 29.3896 36.4391 29.3194 36.4802 29.2585C36.5485 29.1687 36.6456 29.1049 36.7552 29.0779C36.8648 29.0508 36.9804 29.0622 37.0827 29.11C37.3335 29.2226 37.5264 29.6027 37.6522 29.8706C38.0079 30.6336 38.2911 31.43 38.6167 32.2049C39.0477 33.2316 39.5284 34.2357 40.0462 35.2213C40.3234 35.7491 41.1229 35.2815 40.8456 34.7541V34.7548Z" fill="#211715"/>
<path d="M36.3653 35.0757C35.8722 34.0691 35.4393 33.0341 35.0688 31.9762C34.8772 31.4771 34.6879 30.9767 34.5093 30.4726C34.4154 30.2309 34.3455 29.9806 34.3006 29.7252C34.2904 29.6215 34.2864 29.5173 34.2886 29.4131C34.2963 29.3188 34.3257 29.2276 34.3747 29.1467C34.4587 29.0401 34.5803 28.9698 34.7146 28.95C34.8488 28.9302 34.9856 28.9626 35.0967 29.0404C35.2765 29.1907 35.3668 29.5013 35.4681 29.7085C35.5308 29.8137 35.6324 29.89 35.7509 29.9211C35.8694 29.9521 35.9953 29.9354 36.1016 29.8746C36.2057 29.8108 36.2812 29.7093 36.3121 29.5912C36.3431 29.4731 36.3272 29.3476 36.2677 29.241C36.1573 28.9698 36.0133 28.7136 35.8389 28.4784C35.6798 28.2991 35.4765 28.1646 35.2492 28.0883C35.022 28.0119 34.7787 27.9965 34.5436 28.0434C33.653 28.203 33.2783 29.0192 33.3904 29.8483C33.4709 30.4433 33.7184 31.0114 33.9282 31.5703C34.1855 32.2573 34.4512 32.941 34.7256 33.6215C34.9733 34.2757 35.2536 34.917 35.5655 35.5431C35.8433 36.0706 36.6427 35.6031 36.3651 35.0757H36.3653Z" fill="#211715"/>
<path d="M34.568 35.8979C34.0185 34.608 33.5374 33.29 33.1268 31.9493C33.0365 31.6708 32.9267 31.3912 32.8548 31.1075C32.848 31.0805 32.8436 31.0531 32.837 31.0261C32.8324 31.0068 32.8407 31.1225 32.837 31.0162C32.8304 30.9233 32.8309 30.8301 32.8386 30.7373C32.8299 30.8127 32.8862 30.5554 32.8737 30.5864C32.9016 30.5027 32.954 30.4293 33.0241 30.3757C33.0984 30.3096 33.1954 30.2748 33.2947 30.2787C33.3941 30.2825 33.488 30.3247 33.557 30.3964C33.6632 30.4576 33.7892 30.4744 33.9077 30.4434C34.0263 30.4123 34.1278 30.3357 34.1903 30.2303C34.2494 30.1236 34.2651 29.9982 34.2342 29.8802C34.2033 29.7623 34.1281 29.6607 34.0242 29.5968C33.8698 29.4902 33.6945 29.4176 33.51 29.3838C33.3254 29.35 33.1358 29.3557 32.9536 29.4006C32.7714 29.4456 32.6009 29.5287 32.4532 29.6444C32.3055 29.7602 32.1841 29.9059 32.097 30.0721C31.9848 30.3077 31.9218 30.5637 31.9116 30.8245C31.9015 31.0852 31.9445 31.3453 32.038 31.589C32.5296 33.2107 33.1074 34.805 33.7688 36.3651C33.8313 36.4705 33.9328 36.547 34.0514 36.5781C34.1699 36.6092 34.2959 36.5924 34.4021 36.5312C34.5059 36.4673 34.5811 36.3658 34.612 36.2478C34.643 36.1299 34.6273 36.0046 34.5682 35.8979H34.568Z" fill="#211715"/>
<path d="M33.1181 32.8582C32.851 32.7517 32.556 32.7371 32.2797 32.8168C32.0033 32.8966 31.7614 33.066 31.5921 33.2985C31.438 33.5304 31.3404 33.7953 31.3072 34.0718C31.2739 34.3483 31.306 34.6287 31.4008 34.8906C31.6696 35.6902 31.988 36.4723 32.3539 37.2324C32.7276 38.0677 33.1019 38.9034 33.55 39.7026C33.9384 40.3798 34.3639 41.035 34.8244 41.6653C35.0559 41.9898 35.2858 42.3176 35.4872 42.6621C35.5258 42.7277 35.5627 42.7939 35.5976 42.8612C35.6119 42.889 35.6823 43.0586 35.6481 42.9623C35.6641 43.0061 35.6776 43.0508 35.6887 43.0962C35.6939 43.1185 35.6964 43.1415 35.7016 43.1639C35.7296 43.2808 35.6941 43.0813 35.7058 43.1859C35.787 43.9137 35.7874 44.6505 35.8382 45.3808C35.8755 46.2827 36.0155 47.1773 36.2554 48.0475C36.3905 48.4889 36.5896 48.9179 37.1413 48.8099C37.36 48.7516 37.5731 48.6738 37.7779 48.5774C38.0094 48.4864 38.2405 48.3942 38.4712 48.3008C40.8616 47.3636 43.1481 46.1805 45.2938 44.7705C45.7856 44.4394 45.3226 43.6369 44.8264 43.971C43.0434 45.1568 41.1538 46.1737 39.1819 47.0085C38.761 47.1896 38.3368 47.3632 37.9112 47.5334C37.7054 47.6156 37.4993 47.6969 37.2929 47.7774C37.1965 47.816 37.0896 47.8457 36.9958 47.8914C36.9218 47.9275 36.9765 47.8866 36.9781 47.9032C36.9708 47.8237 37.2472 47.9968 37.2343 48.0708C37.2214 47.9879 37.196 47.9074 37.159 47.832C37.1318 47.7437 37.1044 47.6557 37.0803 47.5664C37.0269 47.3688 36.9839 47.1686 36.9468 46.9672C36.8735 46.5671 36.8286 46.1631 36.794 45.758C36.7304 45.0101 36.7151 44.2598 36.6619 43.5113C36.6555 43.2689 36.6239 43.0277 36.5678 42.7918C36.465 42.4937 36.321 42.2114 36.1401 41.9532C35.7951 41.4105 35.391 40.9099 35.037 40.374C34.5258 39.5947 34.0744 38.7778 33.6866 37.9303C33.3255 37.1473 32.9634 36.3633 32.6377 35.5646C32.4709 35.2057 32.339 34.8316 32.2436 34.4475C32.1562 33.9993 32.3761 33.5564 32.8738 33.7505C32.9922 33.7822 33.1184 33.7661 33.225 33.7055C33.3315 33.645 33.41 33.5449 33.4433 33.427C33.4732 33.3087 33.4562 33.1834 33.396 33.0773C33.3357 32.9712 33.2369 32.8925 33.12 32.8575L33.1181 32.8582Z" fill="#211715"/>
<path d="M23.409 29.7489C21.862 30.4048 20.2645 30.9338 18.7081 31.5689C17.1836 32.2237 15.8214 33.2049 14.7173 34.4433C13.542 35.7453 12.6419 37.2714 12.0711 38.9299C11.7835 39.8105 11.5446 40.7063 11.3556 41.6131C11.1409 42.5529 10.9475 43.4971 10.7753 44.4457C10.4252 46.3748 10.1624 48.3178 9.98685 50.2748C9.83734 51.9602 9.66565 53.6893 9.90698 55.3739C10.1036 56.7455 10.6329 58.1854 11.735 59.0894C13.0916 60.2025 14.8971 60.2183 16.4437 59.4899C17.9739 58.746 19.2824 57.6142 20.2389 56.207C21.27 54.7061 22.1038 53.0787 22.7197 51.3649C22.8681 50.9617 23.0054 50.5547 23.1351 50.1449C23.3153 49.5754 22.4213 49.3318 22.2421 49.8988C21.7513 51.4966 21.0817 53.034 20.246 54.4816C19.8248 55.235 19.3319 55.946 18.7743 56.6048C18.2635 57.1729 17.6784 57.6695 17.0349 58.0812C16.4011 58.5307 15.6844 58.8498 14.9262 59.0199C14.2051 59.1689 13.4546 59.0601 12.8055 58.7124C11.6725 58.0669 11.1241 56.8265 10.8798 55.5976C10.581 54.0929 10.7365 52.5205 10.8525 51.0051C10.9921 49.1789 11.2138 47.3617 11.5176 45.5536C11.8218 43.7375 12.1878 41.9218 12.667 40.1431C13.0784 38.567 13.799 37.0884 14.7869 35.7933C15.7283 34.5711 16.9101 33.5546 18.2594 32.8066C18.9598 32.4527 19.6834 32.1467 20.4252 31.8907C21.205 31.5961 21.9878 31.3077 22.7631 31.0033C23.1361 30.8568 23.5071 30.7053 23.8761 30.5488C23.9815 30.4863 24.0581 30.3847 24.0892 30.2661C24.1203 30.1475 24.1034 30.0214 24.0422 29.9152C23.978 29.8116 23.8764 29.7366 23.7585 29.7057C23.6406 29.6748 23.5154 29.6904 23.4086 29.7491L23.409 29.7489Z" fill="#211715"/>
<path d="M26.3139 29.9276C26.2368 29.9778 26.1653 30.036 26.1005 30.1012C26.2581 29.4742 26.2471 28.7819 25.5189 28.5332C25.3101 28.4539 25.0794 28.4544 24.871 28.5347C24.6626 28.615 24.4912 28.7694 24.3896 28.9682C24.3248 29.0936 24.1399 29.4746 24.1399 29.4746L24.0522 29.6554C24.0893 29.4511 24.053 29.2403 23.9496 29.0602C23.8462 28.8801 23.6825 28.7425 23.4873 28.6715C22.8341 28.445 22.3501 28.8131 21.993 29.558C21.7893 29.9835 21.4845 30.7558 21.0863 31.741C20.5888 32.9698 20.0083 34.1414 19.5623 34.9873C19.3769 34.3208 19.3765 33.5164 19.2343 32.8172C19.191 32.4439 19.0522 32.0881 18.8313 31.784C18.7061 31.6508 18.5409 31.5622 18.3607 31.5316C18.1804 31.5009 17.9952 31.53 17.833 31.6144C17.7174 31.6756 17.616 31.7605 17.5354 31.8635C17.4549 31.9666 17.397 32.0855 17.3656 32.2125C17.0359 34.271 16.983 36.3644 17.2084 38.437C17.2612 38.9737 17.4846 39.4801 17.6781 39.9834C17.7705 40.2242 17.8612 40.3748 17.8157 40.62C17.7435 40.8992 17.6332 41.1672 17.4877 41.4162C16.9391 42.4664 16.0304 43.7988 15.3718 44.9762C17.9358 46.6785 20.6191 47.4582 22.8301 48.3163C23.192 48.4567 23.1883 48.2935 23.3066 47.9237C23.8405 46.2548 23.7092 43.4956 23.8909 42.9045C24.0612 42.3506 25.1051 41.0089 25.3395 40.6569C25.834 39.9007 26.2761 39.1114 26.6625 38.2946C27.0703 37.4105 27.9232 35.5641 28.1724 34.7257C28.2908 34.3945 28.2757 34.0303 28.1302 33.71C28.0445 33.5253 27.8959 33.377 27.711 33.2918C27.6 33.2455 27.4807 33.2225 27.3605 33.2244C27.2403 33.2264 27.1218 33.2531 27.0124 33.303L26.9092 33.3342C27.1563 32.6073 27.3842 31.8928 27.5944 31.2448C27.6463 31.0845 27.7721 30.2387 27.1081 29.9118C26.9876 29.8396 26.8492 29.8029 26.7087 29.8057C26.5683 29.8084 26.4315 29.8507 26.3139 29.9276Z" fill="white"/>
<path d="M19.9439 34.5893C19.8176 33.938 19.8017 33.2711 19.6667 32.6216C19.5509 32.0683 19.3434 31.4477 18.7932 31.1881C18.5197 31.0619 18.2117 31.0317 17.9188 31.1021C17.626 31.1726 17.3655 31.3397 17.1793 31.5764C16.9937 31.8312 16.8843 32.1336 16.864 32.4482C16.8122 32.7997 16.7676 33.1521 16.729 33.5055C16.5954 34.8348 16.5751 36.1729 16.6682 37.5056C16.6821 38.1715 16.7892 38.8322 16.9864 39.4685C17.0894 39.7579 17.215 40.0372 17.3186 40.3254C17.4129 40.5876 17.278 40.8123 17.1577 41.049C16.5789 42.1872 15.8408 43.2369 15.2013 44.3403C14.9021 44.857 15.7029 45.3242 16.001 44.8078C16.5347 43.8864 17.1285 43.0013 17.6548 42.0757C17.9156 41.6172 18.2663 41.0834 18.2891 40.5426C18.2786 40.2782 18.2121 40.019 18.0939 39.7822C17.9847 39.5034 17.8714 39.2252 17.7852 38.9384C17.6116 38.3616 17.6041 37.7357 17.573 37.1377C17.5404 36.5204 17.5294 35.9031 17.5435 35.2848C17.5575 34.6758 17.5965 34.0679 17.6604 33.4612C17.6909 33.1749 17.727 32.8896 17.7704 32.605C17.8041 32.3835 17.8141 32.1493 18.0372 32.0321C18.5356 31.7695 18.6965 32.503 18.766 32.8309C18.9062 33.4926 18.9222 34.1722 19.0509 34.8361C19.0846 34.9538 19.1631 35.0536 19.2696 35.1141C19.3761 35.1746 19.502 35.1908 19.6204 35.1594C19.7374 35.1246 19.8365 35.0459 19.8968 34.9398C19.9571 34.8336 19.974 34.7082 19.9439 34.5899V34.5893Z" fill="#211715"/>
<path d="M19.9621 35.2221C20.4112 34.3669 20.835 33.498 21.2187 32.6115C21.5824 31.7716 21.8978 30.9116 22.2649 30.0734C22.3749 29.7476 22.5558 29.4502 22.7946 29.2028C22.8809 29.1238 22.9917 29.0768 23.1085 29.0698C23.2253 29.0628 23.3409 29.0961 23.4361 29.1642C23.7197 29.3712 23.5518 29.7296 23.4461 30.0261C23.2773 30.4976 23.1085 30.9693 22.9364 31.4396C22.5751 32.4265 22.1943 33.406 21.7743 34.3696C21.7164 34.4763 21.7012 34.6012 21.732 34.7187C21.7628 34.8363 21.8372 34.9377 21.94 35.0023C22.0463 35.0634 22.1722 35.0802 22.2908 35.0491C22.4093 35.0181 22.5108 34.9416 22.5734 34.8362C23.0041 33.8483 23.4014 32.8473 23.7735 31.836C23.9703 31.3011 24.1622 30.7646 24.3542 30.2279C24.5395 29.7103 24.6242 29.1929 24.2756 28.7193C24.137 28.5322 23.9546 28.3819 23.7444 28.2816C23.5342 28.1813 23.3026 28.134 23.0699 28.1439C22.8355 28.1626 22.6084 28.2338 22.4051 28.352C22.2018 28.4702 22.0277 28.6325 21.8955 28.827C21.6562 29.1764 21.4617 29.5546 21.3167 29.9526C21.1198 30.4204 20.9321 30.8919 20.742 31.3624C20.2742 32.5199 19.7426 33.649 19.1617 34.7548C18.8849 35.2819 19.6837 35.7504 19.9613 35.2221H19.9621Z" fill="#211715"/>
<path d="M24.4423 35.5432C25.0667 34.3571 25.5174 33.0585 25.9904 31.8068C26.3984 30.7275 27.3103 28.8178 25.8158 28.1571C25.5722 28.0413 25.3006 27.9974 25.0329 28.0305C24.7652 28.0637 24.5125 28.1725 24.3045 28.3442C24.0283 28.5769 23.894 28.9243 23.7401 29.2411C23.6813 29.3478 23.6657 29.4731 23.6966 29.591C23.7275 29.7089 23.8025 29.8104 23.9062 29.8746C24.0124 29.9355 24.1384 29.9522 24.2569 29.9212C24.3754 29.8902 24.4769 29.8139 24.5397 29.7087C24.6214 29.4914 24.7279 29.2843 24.857 29.0914C24.9379 29.0076 25.0457 28.9551 25.1614 28.9431C25.2772 28.9311 25.3935 28.9604 25.4898 29.0258C25.5739 29.0785 25.6406 29.1549 25.6814 29.2454C25.7222 29.336 25.7353 29.4365 25.719 29.5345C25.7047 29.8067 25.6474 30.0749 25.549 30.3291C25.1782 31.4146 24.7527 32.4849 24.32 33.5469C24.1103 34.0618 23.9081 34.5721 23.6426 35.0763C23.3652 35.6032 24.1635 36.0718 24.4423 35.5438V35.5432Z" fill="#211715"/>
<path d="M26.2397 36.3652C26.901 34.805 27.4787 33.2107 27.9704 31.5891C28.0639 31.3455 28.1069 31.0854 28.0968 30.8246C28.0867 30.5638 28.0237 30.3078 27.9115 30.0722C27.8244 29.906 27.703 29.7602 27.5553 29.6444C27.4076 29.5287 27.237 29.4456 27.0548 29.4006C26.8727 29.3557 26.683 29.35 26.4984 29.3838C26.3138 29.4176 26.1385 29.4902 25.9841 29.5969C25.8811 29.6614 25.8065 29.7627 25.7756 29.8803C25.7447 29.9978 25.7597 30.1228 25.8176 30.2296C25.8802 30.3351 25.9817 30.4116 26.1003 30.4427C26.2189 30.4738 26.345 30.4569 26.4512 30.3957C26.5203 30.3244 26.6142 30.2824 26.7135 30.2785C26.8127 30.2747 26.9096 30.3093 26.984 30.3751C27.0538 30.4289 27.1061 30.5022 27.1343 30.5857C27.115 30.5375 27.1536 30.671 27.1536 30.6679C27.1536 30.6704 27.1783 30.8174 27.1692 30.7366C27.177 30.8231 27.178 30.91 27.1723 30.9966C27.1696 31.0593 27.157 31.0908 27.1723 31.0113C27.1665 31.0399 27.1628 31.0692 27.1545 31.0972C27.0712 31.3831 26.9719 31.6653 26.88 31.9487C26.4693 33.2893 25.9883 34.6073 25.4388 35.8972C25.3803 36.0042 25.3651 36.1295 25.3961 36.2474C25.427 36.3653 25.502 36.4669 25.6054 36.5313C25.7117 36.5924 25.8377 36.6093 25.9563 36.5782C26.0748 36.5471 26.1764 36.4706 26.239 36.3652H26.2397Z" fill="#211715"/>
<path d="M27.1362 33.7513C27.5686 33.5827 27.8249 33.8993 27.7842 34.3314C27.7284 34.6589 27.6285 34.9774 27.4873 35.2782C27.1966 36.0219 26.865 36.75 26.5328 37.4759C26.1676 38.2917 25.7559 39.086 25.2997 39.8547C24.9498 40.4334 24.5406 40.9667 24.1569 41.523C23.8048 42.0337 23.4543 42.5412 23.3796 43.1686C23.3004 43.8339 23.3005 44.5095 23.2585 45.1778C23.2296 45.9937 23.1167 46.8044 22.9215 47.5971C22.8966 47.6868 22.8684 47.7755 22.8412 47.8645C22.8237 47.921 22.7853 48.0557 22.7833 48.0537C22.7384 48.0202 22.9836 47.9256 22.9278 47.9501C23.0706 47.8872 23.069 47.9332 23.0148 47.8923C22.9106 47.8373 22.8 47.7952 22.6855 47.7669C22.2553 47.6021 21.8238 47.4414 21.393 47.2788C19.1676 46.4404 16.9876 45.5084 15.007 44.1773C14.511 43.844 14.0471 44.6457 14.5396 44.977C16.4654 46.2712 18.5863 47.1982 20.7479 48.0207C21.22 48.2003 21.6932 48.3763 22.1656 48.5553C22.5646 48.7065 23.1026 49.0225 23.4774 48.6506C23.7433 48.3867 23.8206 47.8562 23.8982 47.5043C23.9954 47.0422 24.0663 46.575 24.1104 46.1049C24.1964 45.2737 24.2151 44.4389 24.2688 43.6055C24.2778 43.4653 24.2881 43.3252 24.3043 43.1856C24.3128 43.1109 24.2829 43.2656 24.3135 43.1354C24.3247 43.0881 24.3365 43.0424 24.3496 42.9957C24.3809 42.8858 24.322 43.0519 24.3539 42.9813C24.3691 42.9477 24.3851 42.9147 24.4017 42.8819C24.4403 42.8071 24.4808 42.7341 24.523 42.6618C24.6212 42.4938 24.7271 42.3304 24.8358 42.1687C25.2384 41.5689 25.6846 41.0027 26.0615 40.3854C26.5531 39.5611 26.9949 38.7081 27.3845 37.831C27.7922 36.9373 28.211 36.0387 28.5355 35.111C28.7224 34.5756 28.8055 34.0013 28.5318 33.4779C28.3841 33.1896 28.1344 32.9665 27.8314 32.8519C27.5283 32.7374 27.1935 32.7396 26.892 32.8581C26.7756 32.8938 26.6772 32.9727 26.6171 33.0785C26.557 33.1844 26.5397 33.3093 26.5687 33.4276C26.6021 33.5455 26.6805 33.6456 26.7871 33.7061C26.8937 33.7666 27.0198 33.7828 27.1382 33.7511L27.1362 33.7513Z" fill="#211715"/>
<path d="M21.1823 12.1294L20.4996 14.5736C20.4669 14.692 20.4827 14.8186 20.5433 14.9254C20.604 15.0322 20.7046 15.1105 20.823 15.1432C20.9414 15.1758 21.0679 15.1601 21.1748 15.0994C21.2816 15.0388 21.3599 14.9382 21.3926 14.8198L22.0751 12.3755C22.1077 12.2571 22.092 12.1306 22.0313 12.0238C21.9707 11.917 21.8701 11.8386 21.7517 11.806C21.6333 11.7733 21.5067 11.7891 21.3999 11.8497C21.2931 11.9104 21.2149 12.011 21.1823 12.1294Z" fill="#211715"/>
<path d="M37.9695 12.0606L38.6523 14.5048C38.6849 14.6232 38.7632 14.7238 38.8701 14.7845C38.9769 14.8451 39.1034 14.8609 39.2218 14.8282C39.3403 14.7956 39.4409 14.7172 39.5015 14.6104C39.5622 14.5036 39.5779 14.3771 39.5453 14.2587L38.8625 11.8144C38.8299 11.696 38.7515 11.5954 38.6447 11.5348C38.5379 11.4741 38.4114 11.4584 38.293 11.491C38.1745 11.5237 38.0739 11.602 38.0133 11.7088C37.9526 11.8156 37.9369 11.9422 37.9695 12.0606Z" fill="#211715"/>
<path d="M44.4794 58.8855H40.1608H33.7675H26.7069H20.2732C18.8034 58.8855 17.3338 58.8859 15.8641 58.8867H15.5188C14.9229 58.8867 14.922 59.8126 15.5188 59.8126C16.8808 59.8126 18.2429 59.8123 19.6051 59.8115H25.8677H32.9204H39.47H44.479C45.0747 59.8115 45.0757 58.8855 44.479 58.8855H44.4794Z" fill="#211715"/>
<path d="M20.4761 14.8972C20.6827 15.7372 20.838 16.5889 21.0379 17.4306C21.1371 17.848 21.2435 18.2645 21.3751 18.6729C21.5042 19.0738 21.6375 19.5453 21.9668 19.8287C22.3931 20.1952 23.0546 20.2423 23.5884 20.3387C24.1573 20.4414 24.7314 20.5203 25.3069 20.5764C25.8824 20.6325 26.4644 20.6632 27.045 20.6729C27.58 20.6812 28.1215 20.6659 28.5532 20.3086C28.8911 19.9837 29.1945 19.6247 29.4586 19.2374C29.6623 18.9773 29.8907 18.6361 30.0867 18.4225C30.1843 18.316 30.1374 18.3168 30.2343 18.4225C30.3051 18.4997 30.401 18.6376 30.4864 18.7505C30.7611 19.1116 31.0411 19.4689 31.33 19.8186C31.6335 20.1852 31.9053 20.5018 32.3893 20.6167C32.9567 20.7518 33.6008 20.6746 34.1778 20.641C35.3266 20.5767 36.4681 20.4176 37.5907 20.1653C37.8942 20.1196 38.1778 19.9865 38.4069 19.7822C38.5798 19.5902 38.7099 19.3636 38.7885 19.1174C38.9583 18.6682 39.0983 18.2084 39.2077 17.7408C39.4436 16.7984 39.6128 15.841 39.8443 14.898C39.9867 14.3193 39.0939 14.0725 38.9515 14.6518C38.7563 15.4455 38.6075 16.2501 38.4223 17.0463C38.3259 17.4591 38.2236 17.871 38.0998 18.2765C38.0166 18.5493 37.9454 18.971 37.7369 19.1446C37.5777 19.2771 37.2834 19.2877 37.0864 19.3294C36.8017 19.3899 36.5158 19.4441 36.2287 19.492C35.71 19.5787 35.1879 19.641 34.6636 19.6828C34.1103 19.727 33.5543 19.7511 32.9993 19.7505C32.8141 19.7643 32.6283 19.7348 32.4565 19.6645C32.3041 19.554 32.172 19.4181 32.0658 19.2627C31.7987 18.9422 31.5386 18.6159 31.2857 18.2838C31.0627 17.9906 30.8613 17.6472 30.5117 17.4929C29.66 17.1186 29.1329 18.1681 28.6983 18.7161C28.5525 18.8999 28.4046 19.0819 28.2546 19.2621C28.1774 19.3545 28.1034 19.4502 28.0216 19.5383C27.9456 19.6203 27.9596 19.6155 27.8865 19.6506C27.4839 19.8435 26.9355 19.7496 26.5003 19.7324C25.4019 19.6905 24.3091 19.5555 23.2336 19.3288C23.0328 19.2862 22.7222 19.2762 22.5683 19.1276C22.4622 18.9997 22.3889 18.8479 22.3547 18.6853C22.2038 18.2498 22.076 17.8067 21.9718 17.3578C21.7526 16.46 21.5893 15.5495 21.3686 14.652C21.2264 14.0733 20.333 14.3185 20.4756 14.8982L20.4761 14.8972Z" fill="#211715"/>
</g>
<defs>
<clipPath id="clip0_135_340">
<rect width="60" height="60" fill="white"/>
</clipPath>
</defs>
</svg>
