<svg width="60" height="60" viewBox="0 0 60 60" fill="none" xmlns="http://www.w3.org/2000/svg">
<path d="M60 17.5562C60 7.86 52.14 0 42.4448 0C37.7886 0 33.3227 1.84966 30.031 5.14241L17.5862 17.5862L42.4138 42.4138L54.8586 29.97C58.1503 26.6772 60 22.2124 60 17.5562Z" fill="#62C4C3"/>
<path d="M5.14241 30.03C1.84966 33.3227 0 37.7876 0 42.4438C0 52.14 7.86 60 17.5562 60C22.2124 60 26.6772 58.1503 29.97 54.8576L42.4138 42.4138L17.5862 17.5862L5.14241 30.03Z" fill="#42A5B2"/>
<path d="M30.3766 12.1107L28.9138 10.648L32.2252 7.33658C33.2628 6.29899 34.4411 5.42899 35.7238 4.75244L36.689 6.58348C35.5893 7.16382 34.5797 7.90865 33.688 8.80037L30.3766 12.1107Z" fill="#F2DAAE"/>
<path d="M39.5503 5.50966L39.0703 3.49759C40.1689 3.23587 41.3038 3.10345 42.4438 3.10345V5.17242C41.4651 5.17242 40.4907 5.28518 39.5503 5.50966Z" fill="#F2DAAE"/>
<path d="M18.3187 16.8547L16.8557 18.3176L20.9937 22.4556L22.4567 20.9927L18.3187 16.8547Z" fill="#3A4249"/>
<path d="M39.0081 37.5443L37.5452 39.0073L41.6832 43.1453L43.1461 41.6823L39.0081 37.5443Z" fill="#3A4249"/>
<path d="M31.0345 20.6896H28.9656V24.8276H31.0345V20.6896Z" fill="#EFBC2E"/>
<path d="M32.0691 19.6552H27.9312V21.7241H32.0691V19.6552Z" fill="#EFBC2E"/>
<path d="M22.4534 24.4485L21.4189 26.2402L25.0024 28.3092L26.0369 26.5175L22.4534 24.4485Z" fill="#EFBC2E"/>
<path d="M22.0764 23.0336L20.0073 26.6184L21.7993 27.6527L23.8683 24.0679L22.0764 23.0336Z" fill="#EFBC2E"/>
<path d="M25.0038 31.6921L21.4199 33.7606L22.4542 35.5526L26.0381 33.484L25.0038 31.6921Z" fill="#EFBC2E"/>
<path d="M21.799 32.3477L20.0071 33.382L22.0761 36.9668L23.8681 35.9325L21.799 32.3477Z" fill="#EFBC2E"/>
<path d="M31.0345 35.1724H28.9656V39.3104H31.0345V35.1724Z" fill="#EFBC2E"/>
<path d="M32.0691 38.2759H27.9312V40.3448H32.0691V38.2759Z" fill="#EFBC2E"/>
<path d="M34.9962 31.6898L33.9617 33.4816L37.5451 35.5505L38.5796 33.7588L34.9962 31.6898Z" fill="#EFBC2E"/>
<path d="M38.2029 32.3432L36.1338 35.928L37.9257 36.9623L39.9948 33.3775L38.2029 32.3432Z" fill="#EFBC2E"/>
<path d="M37.5475 24.4507L33.9636 26.5192L34.9979 28.3112L38.5818 26.2426L37.5475 24.4507Z" fill="#EFBC2E"/>
<path d="M37.9262 23.0373L36.1343 24.0716L38.2033 27.6564L39.9953 26.6221L37.9262 23.0373Z" fill="#EFBC2E"/>
<path d="M36.207 30C36.207 33.4272 33.4274 36.2069 30.0001 36.2069C26.5729 36.2069 23.7932 33.4272 23.7932 30C23.7932 26.5727 26.5729 23.7931 30.0001 23.7931C33.4274 23.7931 36.207 26.5727 36.207 30Z" fill="#AA494A"/>
<path d="M34.1379 30C34.1379 32.2841 32.2852 34.1379 30 34.1379C27.7159 34.1379 25.8621 32.2852 25.8621 30C25.8621 27.7159 27.7148 25.8621 30 25.8621C32.2852 25.8621 34.1379 27.7159 34.1379 30Z" fill="#D36767"/>
</svg>
