<svg width="60" height="60" viewBox="0 0 60 60" fill="none" xmlns="http://www.w3.org/2000/svg">
<path d="M50.6 15C44.8 9.20002 35.8 9.20002 30.2 15C24.6 9.40002 15.4 9.40002 9.80003 15C4.40003 20.4 4.00003 28.8 9.00003 34.6C11.6 37.6 14.2 40.2 17 42.8C18.2 42.2 19.8 41.6 21.2 40.8C21.2 40.8 27.2 38.2 31 32.6C26.2 36 21.6 37.4 19.6 37.8C18.8 34.8 19.4 31.6 21.6 29.4C24.6 26.4 33.2 25.6 36.2 20.8C36.6 20.2 37.4 20.2 37.8 20.8C39.2 24 41.6 31.6 36.4 39.4C33.8 43.4 28 45.2 23.8 43C22.4 44 21 45 20 45.6C23.2 48.4 26.6 51 30.2 53.4C38.4 48.2 45.4 41.8 51.6 34.6C56.2 28.8 55.8 20.4 50.6 15Z" fill="#FD6A7E"/>
</svg>
